<?xml version="1.0" encoding="utf-8"?>
<!-- Generator: Adobe Illustrator 15.0.2, SVG Export Plug-In . SVG Version: 6.00 Build 0)  -->
<!DOCTYPE svg PUBLIC "-//W3C//DTD SVG 1.1//EN" "http://www.w3.org/Graphics/SVG/1.1/DTD/svg11.dtd">
<svg version="1.1" id="Layer_1" xmlns="http://www.w3.org/2000/svg" xmlns:xlink="http://www.w3.org/1999/xlink" x="0px" y="0px"
	 width="128px" height="128px" viewBox="0 0 128 128" enable-background="new 0 0 128 128" xml:space="preserve">
<g transform="translate(-566.41 -28.293)" opacity="0.44">
	<path fill="#FFFFFF" d="M684.357,87.225c-1.368,0.014,0.541-0.504-2.94-0.431c-1.578,0.034-3.962,0.67-5.964,1.336
		c-2.053,0.684-5.591,2.034-7.957,2.631c-4.85,1.224-2.182,0.644-9.421,1.789c-7.504,1.186-9.196,1.339-10.866,1.263
		c-1.599-0.073-5.555,0.417-9.275-0.082c-3.332-0.447-4.609-0.113-5.38,0.42c-0.77,0.532-1.222,1.498-1.177,2.517
		c0.044,1.02,0.577,1.931,1.39,2.376c0.758,0.458,1.914,1.168,3.837,1.813c4.901,1.646,12.112,2.777,20.116,2.777
		c8.002,0,15.215-1.132,20.115-2.777c2.046-0.687,3.339-1.45,4.138-1.956c0.685-0.427,1.15-1.194,1.255-2.069
		c0.224-1.933,1.396-3.528,3.035-4.138c1.242-0.38,2.019-1.776,1.783-3.206C686.808,88.058,685.645,87.138,684.357,87.225
		L684.357,87.225z"/>
	
		<path fill="#FFFFFF" stroke="#6798E9" stroke-width="6.154" stroke-linecap="round" stroke-linejoin="round" stroke-miterlimit="1" d="
		M631.389,53.78c-9.435,0-17.516,4.918-21.48,11.982c-1.583-0.884-3.348-1.425-5.211-1.425c-5.636,0-10.325,4.534-11.775,10.688
		c-2.474-0.979-5.331-1.584-8.403-1.584c-9.22,0-16.705,5.051-16.705,11.27c0,5.613,6.132,10.231,14.1,11.084
		c-0.358,0.606-0.639,1.212-0.639,1.848c0,5.954,16.32,10.795,36.423,10.795s36.423-4.841,36.423-10.795
		c0-0.401-0.266-0.772-0.409-1.162c0.88,0.219,1.768,0.449,2.733,0.449c5.377,0,9.731-3.657,9.731-8.156
		c0-4.498-4.354-8.128-9.731-8.128c-0.66,0-1.243,0.212-1.865,0.317c0.544-1.799,0.919-3.644,0.919-5.595
		c0-11.908-10.794-21.589-24.111-21.589H631.389z"/>
	
		<path fill="#6798E9" stroke="#6798E9" stroke-width="6.154" stroke-linecap="round" stroke-linejoin="round" stroke-miterlimit="1" d="
		M662.124,55.507c-8.655,0-16.065,4.928-19.702,12.006c-1.452-0.885-3.069-1.428-4.779-1.428c-5.169,0-9.47,4.543-10.8,10.711
		c-2.27-0.98-4.889-1.586-7.708-1.586c-8.456,0-15.321,5.061-15.321,11.292c0,5.625,5.624,10.253,12.932,11.109
		c-0.329,0.607-0.586,1.214-0.586,1.851c0,5.967,14.967,10.817,33.407,10.817c18.438,0,33.407-4.851,33.407-10.817
		c0-0.401-0.243-0.773-0.376-1.164c0.808,0.22,1.622,0.45,2.508,0.45c4.933,0,8.925-3.665,8.925-8.172s-3.992-8.146-8.925-8.146
		c-0.605,0-1.141,0.213-1.711,0.317c0.498-1.802,0.844-3.65,0.844-5.606C684.239,65.208,674.338,55.506,662.124,55.507
		L662.124,55.507z"/>
	
		<path fill="#386195" stroke="#386195" stroke-width="6.154" stroke-linecap="round" stroke-linejoin="round" stroke-miterlimit="1" d="
		M627.055,92.315c-4.82,0-8.947,2.456-10.972,5.981c-0.809-0.44-1.709-0.711-2.662-0.711c-2.878,0-5.274,2.263-6.015,5.336
		c-1.263-0.488-2.722-0.791-4.291-0.791c-4.71,0-8.533,2.521-8.533,5.626c0,2.802,3.132,5.107,7.201,5.534
		c-0.183,0.302-0.325,0.604-0.325,0.922c0,2.973,8.335,5.389,18.605,5.389c10.269,0,18.605-2.416,18.605-5.389
		c0-0.2-0.136-0.386-0.209-0.58c0.45,0.11,0.902,0.225,1.396,0.225c2.748,0,4.972-1.826,4.972-4.071
		c0-2.246-2.224-4.058-4.972-4.058c-0.337,0-0.634,0.105-0.953,0.158c0.279-0.898,0.47-1.818,0.47-2.792
		C639.371,97.148,633.858,92.315,627.055,92.315L627.055,92.315z"/>
</g>
<g>
	<path fill="#546A90" d="M65.284,78.921h-3.386l-5.188-15.95C55.891,60.324,54.509,59,52.569,59h-3.431v19.921h-2.864V33.35h9.701
		c1.865,0,3.493,1.172,4.883,3.516c1.476,2.518,2.213,5.621,2.213,9.31c0,3.125-0.479,5.729-1.433,7.812
		c-0.999,2.258-2.213,3.755-3.646,4.493c0.504,0.086,1.221,1.584,2.149,4.491L65.284,78.921z M60.205,46.175
		c0-2.126-0.454-3.885-1.358-5.274c-0.82-1.214-1.792-1.822-2.913-1.822h-6.796v14.192h6.796c1.079,0,2.049-0.629,2.913-1.888
		C59.751,50.039,60.205,48.302,60.205,46.175z"/>
	<path fill="#546A90" d="M83.057,74.212c-0.869,1.836-1.932,3.277-3.19,4.318c-1.259,1.042-2.603,1.564-4.036,1.564
		c-2.474,0-4.622-1.465-6.446-4.398c-1.78-3.003-2.669-6.482-2.669-10.439c0-3.992,0.889-7.489,2.669-10.492
		c1.824-2.896,3.972-4.346,6.446-4.346c1.433,0,2.777,0.513,4.036,1.537c1.259,1.025,2.321,2.456,3.19,4.292l-2.409,2.491
		c-1.215-2.438-2.822-3.657-4.817-3.657c-1.736,0-3.213,1.005-4.427,3.013c-1.215,1.938-1.823,4.334-1.823,7.188
		c0,2.855,0.607,5.251,1.823,7.188c1.258,1.974,2.734,2.96,4.427,2.96c1.995,0,3.602-1.236,4.817-3.709L83.057,74.212z"/>
	<path fill="#546A90" d="M93.385,48.903h-8.593c0-1.255,0.607-2.355,1.822-3.302l3.452-2.006c1.257-0.78,1.887-1.604,1.887-2.467
		c0-0.659-0.348-1.163-1.042-1.512c-0.478-0.288-1.128-0.432-1.953-0.432c-0.694,0-1.303,0.123-1.823,0.371
		c-0.608,0.35-0.912,0.833-0.912,1.449h-1.432c0-1.006,0.455-1.809,1.367-2.406c0.824-0.514,1.801-0.772,2.93-0.772
		c1.042,0,2.019,0.278,2.93,0.833c0.911,0.658,1.367,1.481,1.367,2.469c0,1.028-0.478,1.933-1.433,2.715
		c-0.217,0.124-0.553,0.335-1.009,0.632c-0.456,0.298-1.097,0.663-1.92,1.095c-1.172,0.618-1.976,1.275-2.41,1.975h6.771V48.903z"/>
</g>
</svg>
