<?xml version="1.0" encoding="UTF-8"?>
<!--Generator: Apple Native CoreSVG 149-->
<!DOCTYPE svg
PUBLIC "-//W3C//DTD SVG 1.1//EN"
       "http://www.w3.org/Graphics/SVG/1.1/DTD/svg11.dtd">
<svg version="1.1" xmlns="http://www.w3.org/2000/svg" xmlns:xlink="http://www.w3.org/1999/xlink" width="3300" height="2200">
 <!--glyph: "uni10063D.medium", point size: 100.000000, font version: "Version 16.0d18e1", template writer version: "8"-->
 <g id="Notes">
  <rect height="2200" id="artboard" style="fill:white;opacity:1" width="3300" x="0" y="0"/>
  <line id="" style="fill:none;stroke:black;opacity:1;stroke-width:0.5;" x1="263" x2="3036" y1="292" y2="292"/>
  <text style="stroke:none;fill:black;font-family:-apple-system,&quot;SF Pro Display&quot;,&quot;SF Pro Text&quot;,Helvetica,sans-serif;font-weight:bold;" transform="matrix(1 0 0 1 263 322)">Weight/Scale Variations</text>
  <text style="stroke:none;fill:black;font-family:-apple-system,&quot;SF Pro Display&quot;,&quot;SF Pro Text&quot;,Helvetica,sans-serif;text-anchor:middle;" transform="matrix(1 0 0 1 559.711 322)">Ultralight</text>
  <text style="stroke:none;fill:black;font-family:-apple-system,&quot;SF Pro Display&quot;,&quot;SF Pro Text&quot;,Helvetica,sans-serif;text-anchor:middle;" transform="matrix(1 0 0 1 856.422 322)">Thin</text>
  <text style="stroke:none;fill:black;font-family:-apple-system,&quot;SF Pro Display&quot;,&quot;SF Pro Text&quot;,Helvetica,sans-serif;text-anchor:middle;" transform="matrix(1 0 0 1 1153.13 322)">Light</text>
  <text style="stroke:none;fill:black;font-family:-apple-system,&quot;SF Pro Display&quot;,&quot;SF Pro Text&quot;,Helvetica,sans-serif;text-anchor:middle;" transform="matrix(1 0 0 1 1449.84 322)">Regular</text>
  <text style="stroke:none;fill:black;font-family:-apple-system,&quot;SF Pro Display&quot;,&quot;SF Pro Text&quot;,Helvetica,sans-serif;text-anchor:middle;" transform="matrix(1 0 0 1 1746.56 322)">Medium</text>
  <text style="stroke:none;fill:black;font-family:-apple-system,&quot;SF Pro Display&quot;,&quot;SF Pro Text&quot;,Helvetica,sans-serif;text-anchor:middle;" transform="matrix(1 0 0 1 2043.27 322)">Semibold</text>
  <text style="stroke:none;fill:black;font-family:-apple-system,&quot;SF Pro Display&quot;,&quot;SF Pro Text&quot;,Helvetica,sans-serif;text-anchor:middle;" transform="matrix(1 0 0 1 2339.98 322)">Bold</text>
  <text style="stroke:none;fill:black;font-family:-apple-system,&quot;SF Pro Display&quot;,&quot;SF Pro Text&quot;,Helvetica,sans-serif;text-anchor:middle;" transform="matrix(1 0 0 1 2636.69 322)">Heavy</text>
  <text style="stroke:none;fill:black;font-family:-apple-system,&quot;SF Pro Display&quot;,&quot;SF Pro Text&quot;,Helvetica,sans-serif;text-anchor:middle;" transform="matrix(1 0 0 1 2933.4 322)">Black</text>
  <line id="" style="fill:none;stroke:black;opacity:1;stroke-width:0.5;" x1="263" x2="3036" y1="1903" y2="1903"/>
  <g id="" transform="matrix(1 0 0 1 263 1933)">
   <path d="M9.24805 0.830078C13.5547 0.830078 17.1387-2.74414 17.1387-7.05078C17.1387-11.3574 13.5449-14.9316 9.23828-14.9316C4.94141-14.9316 1.36719-11.3574 1.36719-7.05078C1.36719-2.74414 4.95117 0.830078 9.24805 0.830078ZM9.24805-0.654297C5.70312-0.654297 2.87109-3.49609 2.87109-7.05078C2.87109-10.6055 5.69336-13.4473 9.23828-13.4473C12.793-13.4473 15.6348-10.6055 15.6445-7.05078C15.6543-3.49609 12.8027-0.654297 9.24805-0.654297ZM6.39648-6.31836L8.50586-6.31836L8.50586-4.19922C8.50586-3.75977 8.79883-3.45703 9.22852-3.45703C9.67773-3.45703 9.9707-3.75977 9.9707-4.19922L9.9707-6.31836L12.0996-6.31836C12.5391-6.31836 12.8418-6.61133 12.8418-7.04102C12.8418-7.48047 12.5391-7.7832 12.0996-7.7832L9.9707-7.7832L9.9707-9.89258C9.9707-10.3418 9.67773-10.6445 9.22852-10.6445C8.79883-10.6445 8.50586-10.3418 8.50586-9.89258L8.50586-7.7832L6.39648-7.7832C5.94727-7.7832 5.64453-7.48047 5.64453-7.04102C5.64453-6.61133 5.94727-6.31836 6.39648-6.31836Z"/>
  </g>
  <g id="" transform="matrix(1 0 0 1 281.506 1933)">
   <path d="M11.709 2.91016C17.1582 2.91016 21.6699-1.61133 21.6699-7.05078C21.6699-12.5 17.1484-17.0117 11.6992-17.0117C6.25977-17.0117 1.74805-12.5 1.74805-7.05078C1.74805-1.61133 6.26953 2.91016 11.709 2.91016ZM11.709 1.25C7.09961 1.25 3.41797-2.44141 3.41797-7.05078C3.41797-11.6602 7.08984-15.3516 11.6992-15.3516C16.3086-15.3516 20-11.6602 20.0098-7.05078C20.0195-2.44141 16.3184 1.25 11.709 1.25ZM7.98828-6.23047L10.8789-6.23047L10.8789-3.32031C10.8789-2.83203 11.2109-2.5 11.6895-2.5C12.1777-2.5 12.5195-2.83203 12.5195-3.32031L12.5195-6.23047L15.4297-6.23047C15.918-6.23047 16.25-6.5625 16.25-7.04102C16.25-7.5293 15.918-7.87109 15.4297-7.87109L12.5195-7.87109L12.5195-10.7617C12.5195-11.2695 12.1777-11.6016 11.6895-11.6016C11.2109-11.6016 10.8789-11.2598 10.8789-10.7617L10.8789-7.87109L7.98828-7.87109C7.48047-7.87109 7.14844-7.5293 7.14844-7.04102C7.14844-6.5625 7.49023-6.23047 7.98828-6.23047Z"/>
  </g>
  <g id="" transform="matrix(1 0 0 1 304.924 1933)">
   <path d="M14.9707 5.66406C21.9336 5.66406 27.6953-0.0976562 27.6953-7.05078C27.6953-14.0137 21.9238-19.7754 14.9609-19.7754C8.00781-19.7754 2.25586-14.0137 2.25586-7.05078C2.25586-0.0976562 8.01758 5.66406 14.9707 5.66406ZM14.9707 3.84766C8.93555 3.84766 4.08203-1.01562 4.08203-7.05078C4.08203-13.0957 8.92578-17.9492 14.9609-17.9492C21.0059-17.9492 25.8594-13.0957 25.8691-7.05078C25.8789-1.01562 21.0156 3.84766 14.9707 3.84766ZM10.0586-6.14258L14.0625-6.14258L14.0625-2.12891C14.0625-1.5918 14.4336-1.2207 14.9512-1.2207C15.4883-1.2207 15.8594-1.5918 15.8594-2.12891L15.8594-6.14258L19.8828-6.14258C20.4102-6.14258 20.791-6.51367 20.791-7.03125C20.791-7.56836 20.4199-7.94922 19.8828-7.94922L15.8594-7.94922L15.8594-11.9531C15.8594-12.5098 15.4883-12.8809 14.9512-12.8809C14.4336-12.8809 14.0625-12.5 14.0625-11.9531L14.0625-7.94922L10.0586-7.94922C9.50195-7.94922 9.13086-7.56836 9.13086-7.03125C9.13086-6.51367 9.51172-6.14258 10.0586-6.14258Z"/>
  </g>
  <text style="stroke:none;fill:black;font-family:-apple-system,&quot;SF Pro Display&quot;,&quot;SF Pro Text&quot;,Helvetica,sans-serif;font-weight:bold;" transform="matrix(1 0 0 1 263 1953)">Design Variations</text>
  <text style="stroke:none;fill:black;font-family:-apple-system,&quot;SF Pro Display&quot;,&quot;SF Pro Text&quot;,Helvetica,sans-serif;" transform="matrix(1 0 0 1 263 1971)">Symbols are supported in up to nine weights and three scales.</text>
  <text style="stroke:none;fill:black;font-family:-apple-system,&quot;SF Pro Display&quot;,&quot;SF Pro Text&quot;,Helvetica,sans-serif;" transform="matrix(1 0 0 1 263 1989)">For optimal layout with text and other symbols, vertically align</text>
  <text style="stroke:none;fill:black;font-family:-apple-system,&quot;SF Pro Display&quot;,&quot;SF Pro Text&quot;,Helvetica,sans-serif;" transform="matrix(1 0 0 1 263 2007)">symbols with the adjacent text.</text>
  <line id="" style="fill:none;stroke:#00AEEF;stroke-width:0.5;opacity:1.0;" x1="776" x2="776" y1="1919" y2="1933"/>
  <g id="" transform="matrix(1 0 0 1 776 1933)">
   <path d="M3.31055 0.126953C3.82812 0.126953 4.08203-0.0683594 4.26758-0.605469L5.52734-4.0625L11.2891-4.0625L12.5488-0.605469C12.7344-0.0683594 12.9883 0.126953 13.4961 0.126953C14.0137 0.126953 14.3457-0.185547 14.3457-0.673828C14.3457-0.839844 14.3164-0.986328 14.2383-1.20117L9.6582-13.3887C9.43359-13.9941 9.0332-14.2871 8.4082-14.2871C7.80273-14.2871 7.39258-13.9941 7.17773-13.3984L2.59766-1.19141C2.51953-0.976562 2.49023-0.830078 2.49023-0.664062C2.49023-0.175781 2.80273 0.126953 3.31055 0.126953ZM6.00586-5.53711L8.37891-12.1094L8.42773-12.1094L10.8008-5.53711Z"/>
  </g>
  <line id="" style="fill:none;stroke:#00AEEF;stroke-width:0.5;opacity:1.0;" x1="792.836" x2="792.836" y1="1919" y2="1933"/>
  <text style="stroke:none;fill:black;font-family:-apple-system,&quot;SF Pro Display&quot;,&quot;SF Pro Text&quot;,Helvetica,sans-serif;font-weight:bold;" transform="matrix(1 0 0 1 776 1953)">Margins</text>
  <text style="stroke:none;fill:black;font-family:-apple-system,&quot;SF Pro Display&quot;,&quot;SF Pro Text&quot;,Helvetica,sans-serif;" transform="matrix(1 0 0 1 776 1971)">Leading and trailing margins on the left and right side of each symbol</text>
  <text style="stroke:none;fill:black;font-family:-apple-system,&quot;SF Pro Display&quot;,&quot;SF Pro Text&quot;,Helvetica,sans-serif;" transform="matrix(1 0 0 1 776 1989)">can be adjusted by modifying the x-location of the margin guidelines.</text>
  <text style="stroke:none;fill:black;font-family:-apple-system,&quot;SF Pro Display&quot;,&quot;SF Pro Text&quot;,Helvetica,sans-serif;" transform="matrix(1 0 0 1 776 2007)">Modifications are automatically applied proportionally to all</text>
  <text style="stroke:none;fill:black;font-family:-apple-system,&quot;SF Pro Display&quot;,&quot;SF Pro Text&quot;,Helvetica,sans-serif;" transform="matrix(1 0 0 1 776 2025)">scales and weights.</text>
  <g id="" transform="matrix(1 0 0 1 1289 1933)">
   <path d="M2.8418 1.86523L4.54102 3.57422C5.40039 4.44336 6.38672 4.38477 7.31445 3.35938L17.4902-7.85156C17.7539-7.76367 18.0273-7.7832 18.3398-7.8418L19.4043-8.03711L20.0684-7.36328L20.0293-6.80664C19.9902-6.30859 20.1172-5.92773 20.6055-5.44922L21.3672-4.70703C21.8457-4.22852 22.4609-4.19922 22.9297-4.66797L25.8398-7.58789C26.3086-8.05664 26.2891-8.65234 25.8105-9.13086L25.0391-9.89258C24.5605-10.3711 24.1895-10.5273 23.7109-10.4883L23.1348-10.4395L22.4902-11.0742L22.7344-12.1973C22.8613-12.7637 22.7051-13.2031 22.1191-13.7891L19.9219-15.9766C16.582-19.2969 12.1484-19.2188 9.25781-16.3281C8.83789-15.918 8.80859-15.3418 9.04297-14.9512C9.27734-14.5898 9.73633-14.3555 10.3809-14.5215C11.8457-14.8633 13.3691-14.9219 14.7949-13.9844L14.209-12.5293C14.0137-12.0508 13.9844-11.6504 14.1113-11.2891L3.04688-0.898438C2.06055 0.0195312 1.98242 0.996094 2.8418 1.86523ZM10.752-15.957C13.1836-17.7344 16.4746-17.4316 18.7012-15.2051L21.1328-12.793C21.3672-12.5586 21.4062-12.373 21.3379-12.0312L21.0156-10.5469L22.5195-9.0625L23.5059-9.12109C23.7598-9.13086 23.8379-9.11133 24.0332-8.91602L24.6094-8.33984L22.168-5.89844L21.5918-6.47461C21.3965-6.66992 21.3672-6.74805 21.377-7.01172L21.4453-7.98828L19.9512-9.47266L18.4277-9.21875C18.1055-9.15039 17.959-9.17969 17.7148-9.41406L15.7129-11.416C15.459-11.6504 15.4297-11.8164 15.5859-12.1875L16.4648-14.2773C14.9023-15.7324 12.8711-16.3574 10.8398-15.7617C10.6836-15.7227 10.625-15.8496 10.752-15.957ZM5.27344 2.30469L4.10156 1.14258C3.63281 0.683594 3.74023 0.341797 4.14062-0.0195312L14.9512-10.1953L16.416-8.71094L6.42578 2.27539C6.07422 2.67578 5.74219 2.77344 5.27344 2.30469Z"/>
  </g>
  <text style="stroke:none;fill:black;font-family:-apple-system,&quot;SF Pro Display&quot;,&quot;SF Pro Text&quot;,Helvetica,sans-serif;font-weight:bold;" transform="matrix(1 0 0 1 1289 1953)">Exporting</text>
  <text style="stroke:none;fill:black;font-family:-apple-system,&quot;SF Pro Display&quot;,&quot;SF Pro Text&quot;,Helvetica,sans-serif;" transform="matrix(1 0 0 1 1289 1971)">Symbols should be outlined when exporting to ensure the</text>
  <text style="stroke:none;fill:black;font-family:-apple-system,&quot;SF Pro Display&quot;,&quot;SF Pro Text&quot;,Helvetica,sans-serif;" transform="matrix(1 0 0 1 1289 1989)">design is preserved when submitting to Xcode.</text>
  <text id="template-version" style="stroke:none;fill:black;font-family:-apple-system,&quot;SF Pro Display&quot;,&quot;SF Pro Text&quot;,Helvetica,sans-serif;text-anchor:end;" transform="matrix(1 0 0 1 3036 1933)">Template v.2.0</text>
  <text style="stroke:none;fill:black;font-family:-apple-system,&quot;SF Pro Display&quot;,&quot;SF Pro Text&quot;,Helvetica,sans-serif;text-anchor:end;" transform="matrix(1 0 0 1 3036 1951)">Requires Xcode 12 or greater</text>
  <text style="stroke:none;fill:black;font-family:-apple-system,&quot;SF Pro Display&quot;,&quot;SF Pro Text&quot;,Helvetica,sans-serif;text-anchor:end;" transform="matrix(1 0 0 1 3036 1969)">Generated from sum</text>
  <text style="stroke:none;fill:black;font-family:-apple-system,&quot;SF Pro Display&quot;,&quot;SF Pro Text&quot;,Helvetica,sans-serif;text-anchor:end;" transform="matrix(1 0 0 1 3036 1987)">Typeset at 100 points</text>
  <text style="stroke:none;fill:black;font-family:-apple-system,&quot;SF Pro Display&quot;,&quot;SF Pro Text&quot;,Helvetica,sans-serif;" transform="matrix(1 0 0 1 263 726)">Small</text>
  <text style="stroke:none;fill:black;font-family:-apple-system,&quot;SF Pro Display&quot;,&quot;SF Pro Text&quot;,Helvetica,sans-serif;" transform="matrix(1 0 0 1 263 1156)">Medium</text>
  <text style="stroke:none;fill:black;font-family:-apple-system,&quot;SF Pro Display&quot;,&quot;SF Pro Text&quot;,Helvetica,sans-serif;" transform="matrix(1 0 0 1 263 1586)">Large</text>
 </g>
 <g id="Guides">
  <g id="H-reference" style="fill:#27AAE1;stroke:none;" transform="matrix(1 0 0 1 339 696)">
   <path d="M0.976562 0L3.66211 0L12.9883-24.4629L45.752-24.4629L55.127 0L57.7637 0L30.6152-70.459L28.125-70.459ZM29.3457-67.1387L29.4434-67.1387L44.873-26.709L13.8672-26.709Z"/>
  </g>
  <line id="Baseline-S" style="fill:none;stroke:#27AAE1;opacity:1;stroke-width:0.5;" x1="263" x2="3036" y1="696" y2="696"/>
  <line id="Capline-S" style="fill:none;stroke:#27AAE1;opacity:1;stroke-width:0.5;" x1="263" x2="3036" y1="625.541" y2="625.541"/>
  <g id="H-reference" style="fill:#27AAE1;stroke:none;" transform="matrix(1 0 0 1 339 1126)">
   <path d="M0.976562 0L3.66211 0L12.9883-24.4629L45.752-24.4629L55.127 0L57.7637 0L30.6152-70.459L28.125-70.459ZM29.3457-67.1387L29.4434-67.1387L44.873-26.709L13.8672-26.709Z"/>
  </g>
  <line id="Baseline-M" style="fill:none;stroke:#27AAE1;opacity:1;stroke-width:0.5;" x1="263" x2="3036" y1="1126" y2="1126"/>
  <line id="Capline-M" style="fill:none;stroke:#27AAE1;opacity:1;stroke-width:0.5;" x1="263" x2="3036" y1="1055.54" y2="1055.54"/>
  <g id="H-reference" style="fill:#27AAE1;stroke:none;" transform="matrix(1 0 0 1 339 1556)">
   <path d="M0.976562 0L3.66211 0L12.9883-24.4629L45.752-24.4629L55.127 0L57.7637 0L30.6152-70.459L28.125-70.459ZM29.3457-67.1387L29.4434-67.1387L44.873-26.709L13.8672-26.709Z"/>
  </g>
  <line id="Baseline-L" style="fill:none;stroke:#27AAE1;opacity:1;stroke-width:0.5;" x1="263" x2="3036" y1="1556" y2="1556"/>
  <line id="Capline-L" style="fill:none;stroke:#27AAE1;opacity:1;stroke-width:0.5;" x1="263" x2="3036" y1="1485.54" y2="1485.54"/>
  <line id="left-margin" style="fill:none;stroke:#00AEEF;stroke-width:0.5;opacity:1.0;" x1="1409.17" x2="1409.17" y1="1030.79" y2="1150.12"/>
  <line id="right-margin" style="fill:none;stroke:#00AEEF;stroke-width:0.5;opacity:1.0;" x1="1490.52" x2="1490.52" y1="1030.79" y2="1150.12"/>
 </g>
 <g id="Symbols">
  <g id="Black-L" transform="matrix(1 0 0 1 2876.69 1556)">
   <path d="M32.3242 22.8027L85.1562 22.8027C92.8711 22.8027 97.3633 18.2617 97.3633 11.5234C97.3633 4.73633 92.8711 0.244141 85.1562 0.244141L47.3633 0.244141L47.3633-0.585938L72.4609-22.7051C76.6602-26.0254 78.9062-30.5176 78.9062-35.0098C78.9062-39.5996 76.6602-44.043 72.4609-47.4609L47.3633-69.873L47.3633-70.7031L85.1562-70.7031C92.8711-70.7031 97.3633-75.293 97.3633-81.9824C97.3633-88.7695 92.8711-93.2617 85.1562-93.2617L32.3242-93.2617C21.8262-93.2617 16.0645-85.791 16.0645-77.5879C16.0645-72.4121 18.4082-66.8945 23.4375-62.8906L54.1992-35.7422L54.1992-34.7168L23.4375-7.56836C18.4082-3.56445 16.0645 1.95312 16.0645 7.12891C16.0645 15.332 21.8262 22.8027 32.3242 22.8027Z"/>
  </g>
  <g id="Heavy-L" transform="matrix(1 0 0 1 2581 1556)">
   <path d="M30.1758 22.8027L84.8145 22.8027C91.3574 22.8027 95.2637 18.8965 95.2637 13.1348C95.2637 7.32422 91.3574 3.41797 84.8145 3.41797L42.627 3.41797L42.627 2.68555L70.2148-24.707C73.7793-27.6855 75.6348-31.4941 75.6348-35.3027C75.6348-39.2578 73.7793-43.0664 70.2148-46.0449L42.627-73.1445L42.627-73.877L84.8145-73.877C91.3574-73.877 95.3125-77.7832 95.3125-83.5938C95.3125-89.4043 91.3574-93.2617 84.8145-93.2617L30.2246-93.2617C21.0938-93.2617 16.1133-86.7676 16.1133-79.6875C16.1133-75.293 18.0664-70.6055 22.2168-67.1875L54.5898-35.9375L54.5898-35.0586L22.2168-3.27148C18.0176 0.146484 16.0645 4.83398 16.0645 9.22852C16.0645 16.3086 21.0938 22.8027 30.1758 22.8027Z"/>
  </g>
  <g id="Bold-L" transform="matrix(1 0 0 1 2285.44 1556)">
   <path d="M27.7832 22.8027L84.4238 22.8027C89.6484 22.8027 92.9688 19.6289 92.9688 14.9414C92.9688 10.1562 89.6484 6.98242 84.4238 6.98242L37.3047 6.98242L37.3047 6.34766L67.7246-26.9531C70.5566-29.4922 72.0215-32.5684 72.0215-35.6934C72.0215-38.8672 70.5566-41.9922 67.7246-44.4824L37.3535-76.8066L37.3535-77.4414L84.4727-77.4414C89.6973-77.4414 93.0176-80.6641 93.0176-85.4004C93.0176-90.1367 89.6973-93.2617 84.4727-93.2617L27.832-93.2617C20.3125-93.2617 16.1133-87.8906 16.1133-82.0312C16.1133-78.5156 17.6758-74.8047 20.8496-72.0215L55.0293-36.1816L55.0293-35.4492L20.8008 1.5625C17.5781 4.3457 16.0645 8.05664 16.0645 11.5723C16.0645 17.4316 20.2148 22.8027 27.7832 22.8027Z"/>
  </g>
  <g id="Semibold-L" transform="matrix(1 0 0 1 1989.53 1556)">
   <path d="M26.123 22.8027L84.1797 22.8027C88.4766 22.8027 91.3574 20.166 91.3574 16.1621C91.3574 12.1094 88.4766 9.47266 84.1797 9.47266L33.6914 9.47266L33.6914 8.88672L66.0156-28.5156C68.3105-30.7617 69.5312-33.3008 69.5312-35.9375C69.5312-38.5742 68.3105-41.2109 66.0156-43.4082L33.7402-79.3457L33.7402-79.9316L84.2285-79.9316C88.5742-79.9316 91.4062-82.6172 91.4062-86.6211C91.4062-90.625 88.5742-93.2617 84.2285-93.2617L26.2207-93.2617C19.7754-93.2617 16.1621-88.6719 16.1621-83.6426C16.1621-80.7617 17.3828-77.7344 19.9219-75.3418L55.3223-36.377L55.3223-35.6934L19.8242 4.88281C17.2852 7.27539 16.0645 10.3027 16.0645 13.2324C16.0645 18.2129 19.6289 22.8027 26.123 22.8027Z"/>
  </g>
  <g id="Medium-L" transform="matrix(1 0 0 1 1693.43 1556)">
   <path d="M24.8535 22.8027L83.9844 22.8027C87.5977 22.8027 90.1367 20.5566 90.1367 17.0898C90.1367 13.623 87.5977 11.3281 83.9844 11.3281L30.9082 11.3281L30.9082 10.791L64.7461-29.6875C66.6504-31.6895 67.627-33.8867 67.627-36.084C67.627-38.3789 66.6016-40.625 64.6973-42.5781L31.0059-81.25L31.0059-81.7871L84.0332-81.7871C87.6953-81.7871 90.1855-84.082 90.1855-87.5488C90.1855-91.0156 87.6953-93.2617 84.0332-93.2617L25-93.2617C19.3359-93.2617 16.1621-89.2578 16.1621-84.8633C16.1621-82.4707 17.1387-79.9316 19.1895-77.832L55.5176-36.4746L55.5176-35.8887L19.0918 7.37305C17.041 9.47266 16.0645 12.0117 16.0645 14.4531C16.0645 18.7988 19.2383 22.8027 24.8535 22.8027Z"/>
  </g>
  <g id="Regular-L" transform="matrix(1 0 0 1 1397.5 1556)">
   <path d="M23.2422 22.8027L83.6914 22.8027C86.4746 22.8027 88.5254 21.0449 88.5254 18.3105C88.5254 15.5762 86.4746 13.7695 83.6914 13.7695L27.2949 13.7695L27.2949 13.3301L63.0371-31.25C64.4531-32.959 65.1855-34.6191 65.1855-36.3281C65.1855-38.0859 64.4043-39.8926 62.9883-41.5039L27.3926-83.7891L27.3926-84.2285L83.7891-84.2285C86.5723-84.2285 88.623-86.0352 88.623-88.7695C88.623-91.5039 86.5723-93.2617 83.7891-93.2617L23.3887-93.2617C18.7988-93.2617 16.2109-90.0391 16.2109-86.4746C16.2109-84.668 16.8945-82.7637 18.2617-81.1523L55.8105-36.6699L55.8105-36.1328L18.1152 10.6934C16.748 12.3047 16.0645 14.209 16.0645 16.0645C16.0645 19.5801 18.6523 22.8027 23.2422 22.8027Z"/>
  </g>
  <g id="Light-L" transform="matrix(1 0 0 1 1100.98 1556)">
   <path d="M21.5332 22.8027L84.4727 22.8027C86.5723 22.8027 88.0859 21.4844 88.0859 19.4336C88.0859 17.334 86.5723 16.0156 84.4727 16.0156L24.5117 16.0156L24.5117 15.7227L62.5488-33.2031C63.5254-34.4727 64.1113-35.7422 64.1113-37.0117C64.1113-38.3789 63.4766-39.7461 62.4512-41.0156L24.6582-86.1816L24.6582-86.4746L84.6191-86.4746C86.7188-86.4746 88.2324-87.793 88.2324-89.8926C88.2324-91.9434 86.7188-93.2617 84.6191-93.2617L21.7773-93.2617C18.3105-93.2617 16.2598-90.8203 16.2598-88.0371C16.2598-86.7188 16.7969-85.2539 17.8711-83.9844L56.9824-37.2559L56.9824-36.9141L17.627 13.5254C16.6016 14.7949 16.0645 16.2598 16.0645 17.627C16.0645 20.3613 18.0664 22.8027 21.5332 22.8027Z"/>
  </g>
  <g id="Thin-L" transform="matrix(1 0 0 1 804.518 1556)">
   <path d="M19.2383 22.8027L85.498 22.8027C86.7188 22.8027 87.5488 22.0703 87.5488 20.8984C87.5488 19.6777 86.7188 18.9453 85.498 18.9453L20.8008 18.9453L20.8008 18.8965L61.8652-35.791C62.3535-36.5234 62.6953-37.207 62.6953-37.9395C62.6953-38.7695 62.3047-39.5996 61.7188-40.2832L21.0449-89.3555L21.0449-89.4043L85.7422-89.4043C86.9141-89.4043 87.7441-90.1367 87.7441-91.3574C87.7441-92.5293 86.9141-93.2617 85.7422-93.2617L19.6289-93.2617C17.6758-93.2617 16.3574-91.8457 16.3574-90.1367C16.3574-89.4043 16.6504-88.5254 17.334-87.7441L58.4961-38.0371L58.4961-37.9883L16.9434 17.2852C16.3574 18.0664 16.0645 18.9453 16.0645 19.7266C16.0645 21.3867 17.334 22.8027 19.2383 22.8027Z"/>
  </g>
  <g id="Ultralight-L" transform="matrix(1 0 0 1 507.929 1556)">
   <path d="M18.0664 22.8027L86.0352 22.8027C86.7676 22.8027 87.2559 22.3633 87.2559 21.6309C87.2559 20.8984 86.7676 20.459 86.0352 20.459L18.9941 20.459L61.4746-37.1094C61.7676-37.5488 61.9629-37.9883 61.9629-38.3789C61.9629-38.9648 61.6699-39.502 61.3281-39.9414L19.2383-90.918L86.2793-90.918C87.0605-90.918 87.5-91.3574 87.5-92.0898C87.5-92.8223 87.0605-93.2617 86.2793-93.2617L18.5059-93.2617C17.334-93.2617 16.4062-92.3828 16.4062-91.2109C16.4062-90.7715 16.6016-90.1855 17.041-89.6973L59.2773-38.4766L16.6016 19.2383C16.2598 19.7266 16.0645 20.3125 16.0645 20.8008C16.0645 21.9238 16.9434 22.8027 18.0664 22.8027Z"/>
  </g>
  <g id="Black-M" transform="matrix(1 0 0 1 2888.16 1126)">
   <path d="M27.002 9.7168L66.8457 9.7168C74.0723 9.7168 78.0273 5.56641 78.0273-0.537109C78.0273-6.73828 74.0723-10.8398 66.8457-10.8398L41.6016-10.8398L41.6016-11.5234L58.8379-23.8281C62.8418-26.7578 64.9414-30.8594 64.9414-35.0098C64.9414-39.2578 62.8418-43.3594 58.8379-46.2891L41.6016-58.9355L41.6016-59.6191L66.8457-59.6191C74.0723-59.6191 78.0273-63.7695 78.0273-69.9219C78.0273-76.0742 74.0723-80.1758 66.8457-80.1758L27.002-80.1758C17.627-80.1758 12.4512-73.4375 12.4512-66.0645C12.4512-61.1816 14.7461-56.0059 19.6289-52.3438L42.1387-35.6445L42.1387-34.8145L19.6289-18.1152C14.7461-14.4531 12.4512-9.27734 12.4512-4.39453C12.4512 2.97852 17.627 9.7168 27.002 9.7168Z"/>
  </g>
  <g id="Heavy-M" transform="matrix(1 0 0 1 2592.52 1126)">
   <path d="M25.0977 9.7168L66.3086 9.7168C72.4121 9.7168 75.8789 6.15234 75.8789 0.927734C75.8789-4.39453 72.4121-7.91016 66.3086-7.91016L37.1582-7.91016L37.1582-8.54492L56.543-25.5371C59.9121-28.125 61.6699-31.6406 61.6699-35.1562C61.6699-38.7695 59.9121-42.2852 56.543-44.9219L37.1582-61.9141L37.1582-62.5488L66.3086-62.5488C72.4121-62.5488 75.8789-66.1133 75.8789-71.3867C75.8789-76.6602 72.4121-80.1758 66.3086-80.1758L25.1465-80.1758C16.9434-80.1758 12.4512-74.3652 12.4512-67.9688C12.4512-63.8672 14.3555-59.4727 18.3594-56.3477L42.2363-35.7422L42.2363-34.9609L18.3594-14.1113C14.3555-10.9863 12.4512-6.5918 12.4512-2.49023C12.4512 3.90625 16.9434 9.7168 25.0977 9.7168Z"/>
  </g>
  <g id="Bold-M" transform="matrix(1 0 0 1 2297.01 1126)">
   <path d="M22.998 9.7168L65.6738 9.7168C70.5078 9.7168 73.4375 6.83594 73.4375 2.53906C73.4375-1.80664 70.5078-4.6875 65.6738-4.6875L32.1777-4.6875L32.1777-5.27344L54.0039-27.4414C56.6406-29.6387 58.0078-32.4707 58.0078-35.3516C58.0078-38.2812 56.6406-41.1133 54.0039-43.3594L32.1777-65.1855L32.1777-65.7715L65.6738-65.7715C70.5078-65.7715 73.4863-68.7012 73.4863-72.998C73.4863-77.3438 70.5078-80.1758 65.6738-80.1758L23.0469-80.1758C16.2109-80.1758 12.5-75.3418 12.5-70.0684C12.5-66.7969 13.916-63.3301 16.9922-60.791L42.3828-35.8398L42.3828-35.1562L16.9922-9.66797C13.916-7.12891 12.4512-3.66211 12.4512-0.390625C12.4512 4.88281 16.2109 9.7168 22.998 9.7168Z"/>
  </g>
  <g id="Semibold-M" transform="matrix(1 0 0 1 2001.13 1126)">
   <path d="M21.5332 9.7168L65.2344 9.7168C69.1895 9.7168 71.7773 7.32422 71.7773 3.66211C71.7773 0 69.1895-2.44141 65.2344-2.44141L28.7598-2.44141L28.7598-2.97852L52.2461-28.7598C54.3945-30.7129 55.5176-33.1055 55.5176-35.498C55.5176-37.8906 54.3945-40.332 52.2461-42.2852L28.7598-67.4805L28.7598-68.0176L65.2344-68.0176C69.2383-68.0176 71.8262-70.459 71.8262-74.1211C71.8262-77.7832 69.2383-80.1758 65.2344-80.1758L21.582-80.1758C15.7227-80.1758 12.5-76.0742 12.5-71.5332C12.5-68.8477 13.623-66.0156 16.0645-63.8184L42.4316-35.8887L42.4316-35.2539L16.0156-6.64062C13.623-4.44336 12.4512-1.61133 12.4512 1.07422C12.4512 5.61523 15.6738 9.7168 21.5332 9.7168Z"/>
  </g>
  <g id="Medium-M" transform="matrix(1 0 0 1 1705.05 1126)">
   <path d="M20.4102 9.7168L64.8926 9.7168C68.2129 9.7168 70.5078 7.66602 70.5078 4.49219C70.5078 1.36719 68.2129-0.732422 64.8926-0.732422L26.123-0.732422L26.123-1.2207L50.8789-29.7363C52.6855-31.543 53.6133-33.5449 53.6133-35.5957C53.6133-37.6465 52.6855-39.6973 50.8789-41.4551L26.1719-69.2383L26.1719-69.7266L64.8926-69.7266C68.2617-69.7266 70.5566-71.8262 70.5566-74.9512C70.5566-78.125 68.2617-80.1758 64.8926-80.1758L20.5078-80.1758C15.332-80.1758 12.5-76.5625 12.5-72.6074C12.5-70.3613 13.4277-68.0176 15.332-66.1621L42.5293-35.9375L42.5293-35.3516L15.2832-4.29688C13.3789-2.44141 12.4512-0.0976562 12.4512 2.14844C12.4512 6.10352 15.2832 9.7168 20.4102 9.7168Z"/>
  </g>
  <g id="Regular-M" transform="matrix(1 0 0 1 1409.17 1126)">
   <path d="M18.9941 9.7168L64.4531 9.7168C66.9434 9.7168 68.8477 8.1543 68.8477 5.61523C68.8477 3.125 66.9434 1.46484 64.4531 1.46484L22.7539 1.46484L22.7539 1.02539L49.1699-31.0059C50.4395-32.5684 51.123-34.1309 51.123-35.6934C51.123-37.3047 50.4395-38.916 49.1211-40.4297L22.8027-71.4844L22.8027-71.9238L64.4531-71.9238C66.9922-71.9238 68.8965-73.584 68.8965-76.0742C68.8965-78.6133 66.9922-80.1758 64.4531-80.1758L19.043-80.1758C14.8438-80.1758 12.5-77.2949 12.5-74.0723C12.5-72.4121 13.1348-70.6543 14.4043-69.1895L42.5781-35.9863L42.5781-35.4492L14.3066-1.26953C13.0859 0.195312 12.4512 1.95312 12.4512 3.61328C12.4512 6.83594 14.7949 9.7168 18.9941 9.7168Z"/>
  </g>
  <g id="Light-M" transform="matrix(1 0 0 1 1112.63 1126)">
   <path d="M17.4316 9.7168L65.1367 9.7168C67.041 9.7168 68.457 8.54492 68.457 6.64062C68.457 4.6875 67.041 3.4668 65.1367 3.4668L20.2637 3.4668L20.2637 3.17383L48.6816-32.7637C49.6582-33.9355 50.1465-35.1562 50.1465-36.3281C50.1465-37.5488 49.6094-38.7695 48.6328-39.9414L20.3613-73.6328L20.3613-73.9258L65.2344-73.9258C67.1387-73.9258 68.5547-75.1465 68.5547-77.0996C68.5547-79.0039 67.1387-80.1758 65.2344-80.1758L17.5781-80.1758C14.4043-80.1758 12.5488-77.9785 12.5488-75.4395C12.5488-74.2188 13.0371-72.9004 14.0137-71.7285L43.6523-36.5234L43.6523-36.1816L13.8672 1.26953C12.9395 2.44141 12.4512 3.75977 12.4512 5.0293C12.4512 7.51953 14.2578 9.7168 17.4316 9.7168Z"/>
  </g>
  <g id="Thin-M" transform="matrix(1 0 0 1 816.139 1126)">
   <path d="M15.3809 9.7168L66.0645 9.7168C67.1875 9.7168 67.9688 9.0332 67.9688 7.91016C67.9688 6.83594 67.1875 6.10352 66.0645 6.10352L16.9434 6.10352L16.9434 6.00586L48.0957-35.1074C48.584-35.791 48.877-36.4258 48.877-37.1094C48.877-37.8906 48.5352-38.623 47.998-39.3066L17.0898-76.4648L17.0898-76.5625L66.2109-76.5625C67.334-76.5625 68.1152-77.2949 68.1152-78.3691C68.1152-79.4922 67.334-80.1758 66.2109-80.1758L15.6738-80.1758C13.8184-80.1758 12.6465-78.9062 12.6465-77.3438C12.6465-76.6113 12.9395-75.8301 13.5742-75.0977L45.0195-37.2559L45.0195-37.1094L13.2812 4.63867C12.7441 5.37109 12.4512 6.15234 12.4512 6.93359C12.4512 8.44727 13.5742 9.7168 15.3809 9.7168Z"/>
  </g>
  <g id="Ultralight-M" transform="matrix(1 0 0 1 519.526 1126)">
   <path d="M14.3555 9.7168L66.5039 9.7168C67.2363 9.7168 67.7246 9.32617 67.7246 8.59375C67.7246 7.91016 67.2363 7.4707 66.5039 7.4707L15.2344 7.4707L47.7539-36.2793C48.0469-36.7188 48.2422-37.1094 48.2422-37.5488C48.2422-38.0859 47.998-38.5742 47.6562-38.9648L15.4297-77.9297L66.6992-77.9297C67.4316-77.9297 67.9199-78.3691 67.9199-79.0527C67.9199-79.7852 67.4316-80.1758 66.6992-80.1758L14.6973-80.1758C13.5254-80.1758 12.6953-79.3457 12.6953-78.2715C12.6953-77.8809 12.8906-77.3438 13.2812-76.8555L45.7031-37.5977L12.9883 6.39648C12.6465 6.88477 12.4512 7.42188 12.4512 7.86133C12.4512 8.88672 13.2324 9.7168 14.3555 9.7168Z"/>
  </g>
  <g id="Black-S" transform="matrix(1 0 0 1 2898.02 696)">
   <path d="M21.0449 0L52.3438 0C57.9102 0 60.9863-3.22266 60.9863-7.95898C60.9863-12.7441 57.9102-15.918 52.3438-15.918L32.2754-15.918L32.2754-16.4551L45.9473-26.416C49.0234-28.6621 50.6348-31.8359 50.6348-35.0586C50.6348-38.3301 49.0234-41.5039 45.9473-43.7988L32.2754-54.0039L32.2754-54.541L52.3438-54.541C57.9102-54.541 60.9863-57.7637 60.9863-62.5C60.9863-67.2852 57.9102-70.459 52.3438-70.459L21.0449-70.459C13.7695-70.459 9.76562-65.2344 9.76562-59.5215C9.76562-55.7617 11.5234-51.7578 15.2832-48.9258L33.0078-35.5469L33.0078-34.9121L15.2832-21.5332C11.5234-18.7012 9.76562-14.6973 9.76562-10.9375C9.76562-5.22461 13.7695 0 21.0449 0Z"/>
  </g>
  <g id="Heavy-S" transform="matrix(1 0 0 1 2602.12 696)">
   <path d="M19.7754 0L51.8066 0C56.5918 0 59.375-2.7832 59.375-6.93359C59.375-11.1328 56.5918-13.916 51.8066-13.916L29.1504-13.916L29.1504-14.4531L44.2383-27.5391C46.875-29.541 48.2422-32.3242 48.2422-35.1074C48.2422-37.9395 46.875-40.7227 44.2383-42.7734L29.1504-56.0059L29.1504-56.543L51.8066-56.543C56.5918-56.543 59.375-59.375 59.375-63.5254C59.375-67.6758 56.5918-70.459 51.8066-70.459L19.7754-70.459C13.3301-70.459 9.76562-65.8691 9.76562-60.791C9.76562-57.5684 11.2305-54.1504 14.4043-51.6602L32.959-35.5469L32.959-34.9609L14.3555-18.7988C11.2305-16.3086 9.76562-12.8906 9.76562-9.66797C9.76562-4.58984 13.3301 0 19.7754 0Z"/>
  </g>
  <g id="Bold-S" transform="matrix(1 0 0 1 2306.31 696)">
   <path d="M18.3594 0L51.2695 0C55.1758 0 57.5684-2.34375 57.5684-5.81055C57.5684-9.32617 55.1758-11.6699 51.2695-11.6699L25.6836-11.6699L25.6836-12.1582L42.334-28.7598C44.4824-30.5664 45.5566-32.8613 45.5566-35.1562C45.5566-37.5 44.4824-39.8438 42.334-41.6504L25.6836-58.3008L25.6836-58.7891L51.2695-58.7891C55.1758-58.7891 57.5684-61.1328 57.5684-64.6484C57.5684-68.1641 55.1758-70.459 51.2695-70.459L18.3594-70.459C12.793-70.459 9.76562-66.5527 9.76562-62.2559C9.76562-59.6191 10.9375-56.8359 13.3789-54.7852L32.959-35.5469L32.959-35.0098L13.3789-15.6738C10.9375-13.623 9.76562-10.8398 9.76562-8.20312C9.76562-3.90625 12.793 0 18.3594 0Z"/>
  </g>
  <g id="Semibold-S" transform="matrix(1 0 0 1 2010.23 696)">
   <path d="M17.334 0L50.8301 0C54.1504 0 56.2988-2.00195 56.2988-5.07812C56.2988-8.10547 54.1504-10.1562 50.8301-10.1562L23.2422-10.1562L23.2422-10.5957L41.0156-29.5898C42.8223-31.25 43.75-33.252 43.75-35.2051C43.75-37.207 42.8223-39.209 41.0156-40.8691L23.2422-59.8633L23.2422-60.3027L50.8789-60.3027C54.1504-60.3027 56.2988-62.3535 56.2988-65.3809C56.2988-68.457 54.1504-70.459 50.8789-70.459L17.3828-70.459C12.4512-70.459 9.76562-66.9922 9.76562-63.2324C9.76562-61.0352 10.6934-58.6914 12.6953-56.8848L32.9102-35.5469L32.9102-35.0098L12.6953-13.5742C10.6934-11.7676 9.76562-9.42383 9.76562-7.22656C9.76562-3.4668 12.4512 0 17.334 0Z"/>
  </g>
  <g id="Medium-S" transform="matrix(1 0 0 1 1713.99 696)">
   <path d="M16.6016 0L50.5371 0C53.418 0 55.3711-1.75781 55.3711-4.49219C55.3711-7.17773 53.418-8.98438 50.5371-8.98438L21.4355-8.98438L21.4355-9.42383L40.0391-30.2246C41.5527-31.7871 42.334-33.5449 42.334-35.2539C42.334-37.0117 41.5527-38.7695 40.0391-40.2832L21.4355-61.0352L21.4355-61.4746L50.5371-61.4746C53.418-61.4746 55.3711-63.2812 55.3711-65.9668C55.3711-68.7012 53.418-70.459 50.5371-70.459L16.6016-70.459C12.207-70.459 9.76562-67.3828 9.76562-63.9648C9.76562-62.0605 10.5469-60.1074 12.1582-58.4961L32.9102-35.5957L32.9102-35.0586L12.1582-11.9629C10.5469-10.3516 9.76562-8.39844 9.76562-6.49414C9.76562-3.07617 12.207 0 16.6016 0Z"/>
  </g>
  <g id="Regular-S" transform="matrix(1 0 0 1 1417.89 696)">
   <path d="M15.625 0L50.1465 0C52.3926 0 54.1504-1.46484 54.1504-3.71094C54.1504-5.95703 52.3926-7.4707 50.1465-7.4707L19.043-7.4707L19.043-7.86133L38.7695-31.1035C39.8926-32.4707 40.5273-33.8867 40.5273-35.3027C40.5273-36.7188 39.8926-38.1836 38.7207-39.502L19.043-62.5977L19.043-62.9883L50.1465-62.9883C52.3926-62.9883 54.1504-64.502 54.1504-66.748C54.1504-68.9941 52.3926-70.459 50.1465-70.459L15.625-70.459C11.8652-70.459 9.76562-67.8223 9.76562-64.9414C9.76562-63.4766 10.3516-61.9141 11.4746-60.5957L32.8613-35.5957L32.8613-35.0586L11.4746-9.86328C10.3516-8.54492 9.76562-6.98242 9.76562-5.46875C9.76562-2.63672 11.8164 0 15.625 0Z"/>
  </g>
  <g id="Light-S" transform="matrix(1 0 0 1 1121.32 696)">
   <path d="M14.2578 0L50.7812 0C52.4902 0 53.8086-1.12305 53.8086-2.83203C53.8086-4.54102 52.4902-5.66406 50.7812-5.66406L16.8457-5.66406L16.8457-5.95703L38.3301-32.6172C39.209-33.6914 39.6973-34.7656 39.6973-35.8398C39.6973-36.9629 39.209-38.0859 38.2812-39.1113L16.8945-64.502L16.8945-64.7949L50.8301-64.7949C52.5391-64.7949 53.8574-65.918 53.8574-67.627C53.8574-69.3359 52.5391-70.459 50.8301-70.459L14.3555-70.459C11.4746-70.459 9.81445-68.457 9.81445-66.2109C9.81445-65.0879 10.2539-63.8672 11.1328-62.8418L33.7891-36.0352L33.7891-35.6934L11.0352-7.61719C10.2051-6.5918 9.76562-5.37109 9.76562-4.24805C9.76562-2.00195 11.377 0 14.2578 0Z"/>
  </g>
  <g id="Thin-S" transform="matrix(1 0 0 1 824.806 696)">
   <path d="M12.4512 0L51.5625 0C52.5879 0 53.3691-0.634766 53.3691-1.66016C53.3691-2.68555 52.5879-3.32031 51.5625-3.32031L13.916-3.32031L13.916-3.4668L37.793-34.668C38.2812-35.3027 38.5742-35.9375 38.5742-36.5723C38.5742-37.2559 38.2324-37.9395 37.7441-38.5254L14.0137-66.9922L14.0137-67.1387L51.709-67.1387C52.7344-67.1387 53.4668-67.7734 53.4668-68.7988C53.4668-69.8242 52.7344-70.459 51.709-70.459L12.6465-70.459C10.9863-70.459 9.91211-69.2383 9.91211-67.8711C9.91211-67.1875 10.1562-66.4551 10.7422-65.8203L35.0098-36.6699L35.0098-36.5234L10.5469-4.63867C10.0098-4.00391 9.76562-3.27148 9.76562-2.58789C9.76562-1.2207 10.791 0 12.4512 0Z"/>
  </g>
  <g id="Ultralight-S" transform="matrix(1 0 0 1 528.193 696)">
   <path d="M11.5234 0L52.002 0C52.6855 0 53.125-0.390625 53.125-1.07422C53.125-1.70898 52.6855-2.14844 52.002-2.14844L12.4023-2.14844L37.5-35.7422C37.793-36.1328 37.9883-36.5234 37.9883-36.9141C37.9883-37.4023 37.7441-37.8418 37.4023-38.2324L12.5488-68.3105L52.1484-68.3105C52.832-68.3105 53.2715-68.75 53.2715-69.3848C53.2715-70.0684 52.832-70.459 52.1484-70.459L11.7676-70.459C10.6934-70.459 9.96094-69.6777 9.96094-68.7012C9.96094-68.3105 10.1074-67.8223 10.498-67.3828L35.6445-37.0117L35.6445-36.9629L10.2539-3.07617C9.91211-2.63672 9.76562-2.14844 9.76562-1.70898C9.76562-0.78125 10.4492 0 11.5234 0Z"/>
  </g>
 </g>
</svg>
