<?xml version="1.0" encoding="utf-8"?>
<!-- Generator: Adobe Illustrator 15.0.2, SVG Export Plug-In . SVG Version: 6.00 Build 0)  -->
<!DOCTYPE svg PUBLIC "-//W3C//DTD SVG 1.1//EN" "http://www.w3.org/Graphics/SVG/1.1/DTD/svg11.dtd">
<svg version="1.1" id="Layer_1" xmlns="http://www.w3.org/2000/svg" xmlns:xlink="http://www.w3.org/1999/xlink" x="0px" y="0px"
	 width="512px" height="512px" viewBox="0 0 512 512" enable-background="new 0 0 512 512" xml:space="preserve">
<g>
	<path d="M457.607,108.373c5.324,5.324,9.887,12.548,13.689,21.675c3.802,9.126,5.704,17.491,5.704,25.097v328.542
		c0,7.605-2.662,14.069-7.985,19.393s-11.788,7.985-19.393,7.985H66.323c-7.605,0-14.069-2.662-19.393-7.985
		c-5.323-5.324-7.985-11.788-7.985-19.393V27.378c0-7.605,2.662-14.069,7.985-19.393C52.254,2.662,58.718,0,66.323,0h255.532
		c7.605,0,15.971,1.901,25.097,5.704c9.126,3.802,16.351,8.365,21.675,13.689L457.607,108.373z M330.981,38.786v107.232h107.232
		c-1.901-5.514-3.993-9.412-6.274-11.693l-89.265-89.265C340.393,42.779,336.495,40.688,330.981,38.786z M440.496,474.56V182.523
		h-118.64c-7.605,0-14.069-2.662-19.393-7.985s-7.985-11.788-7.985-19.393V36.504H75.449V474.56H440.496z"/>
	<text transform="matrix(1 0 0 1 97.0229 323.5503)" font-family="'ArialRoundedMTBold'" font-size="114.0769">HTML</text>
</g>
</svg>
